<?xml version="1.0" encoding="iso-8859-1"?>
<!-- Generator: Adobe Illustrator 16.0.0, SVG Export Plug-In . SVG Version: 6.00 Build 0)  -->
<!DOCTYPE svg PUBLIC "-//W3C//DTD SVG 1.1//EN" "http://www.w3.org/Graphics/SVG/1.1/DTD/svg11.dtd">
<svg version="1.1" id="Capa_1" xmlns="http://www.w3.org/2000/svg" xmlns:xlink="http://www.w3.org/1999/xlink" x="0px" y="0px"
	 width="612px" height="612px" viewBox="0 0 612 612" style="enable-background:new 0 0 612 612;" xml:space="preserve">
<g>
	<path d="M612,306C612,137.004,474.995,0,306,0C137.004,0,0,137.004,0,306c0,168.995,137.004,306,306,306
		C474.995,612,612,474.995,612,306z M141.233,414.741c5.286,0.668,10.682,1.029,16.135,1.029
		c31.685,0.056,60.838-11.378,83.955-30.572c-29.599-0.695-54.551-21.614-63.147-50.323c4.117,0.862,8.374,1.363,12.713,1.392
		c6.176,0.027,12.129-0.808,17.804-2.421c-30.934-6.843-54.245-36.191-54.245-71.159c0-0.306,0-0.612,0-0.918
		c9.124,5.508,19.528,8.846,30.627,9.347c-18.109-13.103-30.043-35.357-30.043-60.394c0-13.241,3.338-25.593,9.152-36.164
		c33.354,44.092,83.176,73.356,139.341,77c-1.168-5.257-1.753-10.738-1.753-16.329c0-39.53,30.267-71.075,67.599-70.463
		c19.444,0.334,37.025,9.263,49.35,23.284c15.411-2.949,29.876-8.624,42.923-16.552c-5.035,16.496-15.772,30.238-29.737,38.834
		c13.687-1.53,26.705-5.146,38.834-10.626c-9.068,14.104-20.53,26.427-33.743,36.275c0.139,3.06,0.194,6.12,0.194,9.18
		c0,93.859-68.016,202.099-192.363,202.043C206.689,447.232,171.138,435.271,141.233,414.741z"/>
</g>
<g>
</g>
<g>
</g>
<g>
</g>
<g>
</g>
<g>
</g>
<g>
</g>
<g>
</g>
<g>
</g>
<g>
</g>
<g>
</g>
<g>
</g>
<g>
</g>
<g>
</g>
<g>
</g>
<g>
</g>
</svg>
